<svg id="visual" viewBox="0 0 900 600" width="900" height="600" xmlns="http://www.w3.org/2000/svg" xmlns:xlink="http://www.w3.org/1999/xlink" version="1.1"><path d="M0 133L100 157L200 139L300 139L400 157L500 145L600 175L700 145L800 151L900 169L900 0L800 0L700 0L600 0L500 0L400 0L300 0L200 0L100 0L0 0Z" fill="#00cc8e"></path><path d="M0 193L100 205L200 187L300 205L400 205L500 211L600 235L700 193L800 199L900 235L900 167L800 149L700 143L600 173L500 143L400 155L300 137L200 137L100 155L0 131Z" fill="#00bd8b"></path><path d="M0 253L100 271L200 253L300 265L400 265L500 283L600 289L700 259L800 271L900 283L900 233L800 197L700 191L600 233L500 209L400 203L300 203L200 185L100 203L0 191Z" fill="#00ae87"></path><path d="M0 421L100 409L200 409L300 439L400 451L500 439L600 433L700 433L800 439L900 433L900 281L800 269L700 257L600 287L500 281L400 263L300 263L200 251L100 269L0 251Z" fill="#00a081"></path><path d="M0 517L100 511L200 517L300 535L400 541L500 541L600 535L700 523L800 523L900 541L900 431L800 437L700 431L600 431L500 437L400 449L300 437L200 407L100 407L0 419Z" fill="#00917b"></path><path d="M0 601L100 601L200 601L300 601L400 601L500 601L600 601L700 601L800 601L900 601L900 539L800 521L700 521L600 533L500 539L400 539L300 533L200 515L100 509L0 515Z" fill="#038373"></path></svg>